<?xml version="1.0" standalone="no"?>
<!DOCTYPE svg PUBLIC "-//W3C//DTD SVG 20010904//EN"
 "http://www.w3.org/TR/2001/REC-SVG-20010904/DTD/svg10.dtd">
<svg version="1.0" xmlns="http://www.w3.org/2000/svg"
 width="300.000000pt" height="300.000000pt" viewBox="0 0 300.000000 300.000000"
 preserveAspectRatio="xMidYMid meet">
<metadata>
Created by potrace 1.11, written by Peter Selinger 2001-2013
</metadata>
<g transform="translate(0.000000,300.000000) scale(0.100000,-0.100000)"
fill="#000000" stroke="none">
<path d="M470 2428 c-1 -4 -1 -1869 0 -1895 0 -23 0 -23 180 -23 l179 0 0 641
c-1 352 1 642 4 645 3 3 14 -19 25 -48 24 -61 177 -439 197 -483 7 -16 38 -91
68 -165 30 -74 94 -233 143 -353 l88 -218 129 3 129 3 115 280 c120 296 124
306 141 345 6 14 66 160 133 325 66 165 125 304 130 310 5 5 9 -254 9 -638 l0
-647 178 0 179 0 0 960 0 960 -232 0 c-177 0 -234 -3 -238 -12 -24 -64 -292
-730 -302 -753 -7 -16 -64 -157 -126 -313 -62 -155 -116 -279 -119 -275 -4 5
-33 73 -65 153 -31 80 -63 159 -70 175 -8 17 -103 254 -212 527 l-198 498
-232 0 c-128 0 -233 -1 -233 -2z"/>
</g>
</svg>
